<svg width="24" height="24" viewBox="0 0 24 24" fill="none" xmlns="http://www.w3.org/2000/svg">
<path id="Combined Shape" fill-rule="evenodd" clip-rule="evenodd" d="M12 24C18.6274 24 24 18.6274 24 12C24 5.37258 18.6274 0 12 0C5.37258 0 0 5.37258 0 12C0 18.6274 5.37258 24 12 24ZM15.4598 8.41664L16.1842 9.19502C16.2835 9.30187 16.3334 9.43163 16.3333 9.5842C16.3333 9.73686 16.2835 9.8666 16.1842 9.97345L12.3277 14.1172L11.6032 14.8956C11.5038 15.0023 11.383 15.0558 11.241 15.0558C11.0989 15.0558 10.9782 15.0024 10.8788 14.8956L10.1543 14.1172L8.22607 12.0454C8.12663 11.9386 8.07692 11.8087 8.07692 11.6561C8.07692 11.5035 8.12663 11.3737 8.22607 11.2669L8.95049 10.4885C9.04993 10.3817 9.17066 10.3283 9.31276 10.3283C9.45475 10.3283 9.57549 10.3817 9.67493 10.4885L11.241 12.1769L14.7354 8.41664C14.8347 8.30984 14.9555 8.25641 15.0976 8.25641C15.2396 8.25641 15.3604 8.30984 15.4598 8.41664Z" fill="#6BBC13"/>
</svg>
