<svg width="145" height="49" viewBox="0 0 145 49" fill="none" xmlns="http://www.w3.org/2000/svg">
<path fill-rule="evenodd" clip-rule="evenodd" d="M25.7167 13.9335H11.567V10.4835H24.2007C25.0381 10.4835 25.7167 11.1745 25.7167 12.0266V13.9335ZM25.7167 18.4495C25.7167 19.3017 25.0381 19.9927 24.2007 19.9927H11.567V16.5427H25.7167V18.4495ZM39.104 45.7882L30.129 30.3111C35.8571 27.4855 38.4925 22.0917 38.4925 16.1178C38.4925 11.3677 36.9108 7.51407 33.8175 4.4973C30.7238 1.47758 26.1134 0 20.0548 0H1.14613C0.51293 0 0 0.500741 0 1.11829V46.3387C0 46.9558 0.51293 47.4565 1.14613 47.4565H11.4027C12.0359 47.4565 12.5488 46.9558 12.5488 46.3387V32.6226H17.3365L25.2877 46.873C25.4888 47.2327 25.8749 47.4565 26.2949 47.4565H38.1064C38.9842 47.4565 39.536 46.5334 39.104 45.7882Z" fill="white"/>
<path fill-rule="evenodd" clip-rule="evenodd" d="M116.365 3.08906C116.999 3.72353 118.114 3.72353 118.749 3.08906C119.383 2.45458 119.383 1.33944 118.749 0.724193C118.114 0.089718 116.999 0.089718 116.365 0.724193C115.73 1.33944 115.73 2.45458 116.365 3.08906ZM48.6875 1.01259V10.0298C48.6875 11.8179 49.2066 13.1638 50.2641 14.0866C51.3215 15.0095 52.6482 15.4709 54.244 15.4709C55.8398 15.4709 57.1664 15.0095 58.2046 14.0866C59.2621 13.1638 59.7812 11.8179 59.7812 10.0298V1.01259H56.8972V9.83756C56.8972 11.6833 55.859 12.7023 54.244 12.7023C52.5713 12.7023 51.5523 11.741 51.5523 9.83756V1.01259H48.6875ZM61.2232 15.221H64.5686L67.5679 10.2413L70.5288 15.221H73.8166L69.356 8.03027L73.8358 1.01259H70.4904L67.5872 5.8769L64.8186 1.01259H61.5308L65.7799 8.03027L61.2232 15.221ZM85.6216 15.221H80.1805V1.01259H85.737C87.8711 1.01259 89.5439 1.64707 90.7551 2.93524C91.9664 4.20419 92.5816 5.93458 92.5816 8.14563C92.5816 10.3182 91.9664 12.0486 90.7167 13.3176C89.4862 14.5865 87.7942 15.221 85.6216 15.221ZM83.0261 12.4908V3.74276H85.7562C86.9867 3.74276 87.9288 4.16574 88.6018 4.99248C89.2747 5.81922 89.6208 6.83823 89.6208 8.08795C89.6208 9.3569 89.2747 10.4144 88.6018 11.2411C87.9288 12.0678 86.9867 12.4908 85.7562 12.4908H83.0261ZM104.81 9.74143C104.81 10.1067 104.771 10.5105 104.714 10.9335H96.8499C97.2345 12.4139 98.2535 13.1638 99.9069 13.1638C101.041 13.1638 102.387 12.7215 103.291 12.1063L104.368 14.0097C103.041 14.971 101.522 15.4517 99.7916 15.4517C97.9458 15.4517 96.5423 14.9134 95.5618 13.8559C94.5812 12.7984 94.1005 11.491 94.1005 9.97215C94.1005 8.37635 94.6004 7.06894 95.6194 6.03071C96.6384 4.99248 97.9458 4.47336 99.5609 4.47336C101.08 4.47336 102.349 4.95403 103.329 5.89613C104.31 6.83823 104.81 8.10718 104.81 9.74143ZM96.8499 8.91469C97.1768 7.54961 98.1958 6.72287 99.5609 6.72287C100.945 6.72287 101.926 7.54961 102.176 8.91469H96.8499ZM110.116 15.4902C108.29 15.4902 106.848 14.8172 105.79 13.4714L107.232 11.7602C107.982 12.6639 109.078 13.2214 110.135 13.2214C110.962 13.2214 111.577 12.7984 111.577 12.2024C111.577 11.8371 111.328 11.5295 110.828 11.2988C110.655 11.2219 110.251 11.0681 109.578 10.8181C108.905 10.5682 108.463 10.3759 108.232 10.2605C107.021 9.68375 106.425 8.7801 106.425 7.54961C106.425 6.62673 106.79 5.8769 107.501 5.28088C108.213 4.68486 109.174 4.39646 110.347 4.39646C111.827 4.39646 113.058 4.89635 114.019 5.89613L112.673 7.64574C111.943 6.95359 111.135 6.60751 110.27 6.60751C109.559 6.60751 109.078 7.01126 109.078 7.49193C109.078 7.93414 109.386 8.24176 110.001 8.45325C111.385 8.97237 112.231 9.31845 112.52 9.47226C113.692 10.0875 114.288 10.9719 114.288 12.1255C114.288 13.1061 113.904 13.9136 113.135 14.5481C112.385 15.1825 111.366 15.4902 110.116 15.4902ZM118.903 4.74254V15.221H116.192V4.74254H118.903ZM129.343 4.74254V5.89613C128.478 4.95403 127.401 4.47336 126.113 4.47336C124.594 4.47336 123.325 4.99248 122.306 6.01149C121.287 7.03049 120.768 8.31867 120.768 9.87602C120.768 11.4334 121.248 12.7023 122.229 13.7213C123.209 14.7403 124.459 15.2402 125.997 15.2402C127.343 15.2402 128.42 14.798 129.227 13.8944V14.4327C129.227 16.1246 128.035 17.3359 125.959 17.3359C124.728 17.3359 123.498 16.9321 122.287 16.1054L121.229 18.1434C122.633 19.1624 124.248 19.6623 126.036 19.6623C127.747 19.6623 129.15 19.1624 130.227 18.1819C131.304 17.2013 131.842 15.8555 131.842 14.1828V4.74254H129.343ZM123.498 9.89524C123.498 10.7604 123.767 11.4718 124.325 12.0294C124.882 12.587 125.574 12.8754 126.401 12.8754C127.228 12.8754 127.92 12.587 128.478 12.0294C129.035 11.4526 129.304 10.7412 129.304 9.89524C129.304 9.04928 129.035 8.35712 128.478 7.79955C127.92 7.24198 127.228 6.95359 126.401 6.95359C125.574 6.95359 124.882 7.24198 124.325 7.79955C123.767 8.35712 123.498 9.04928 123.498 9.89524ZM134.303 15.221H137.014V9.60684C137.014 8.0495 137.975 6.95359 139.417 6.95359C140.744 6.95359 141.628 7.87646 141.628 9.54917V15.221H144.339V8.81856C144.339 7.41502 143.936 6.33834 143.147 5.5885C142.359 4.83867 141.379 4.45414 140.244 4.45414C138.764 4.45414 137.514 5.18475 136.956 6.20375V4.74254H134.303V15.221Z" fill="white"/>
<path fill-rule="evenodd" clip-rule="evenodd" d="M64.488 28.4008C65.0552 29.2756 66.0357 29.7562 67.1124 29.7562C67.8623 29.7562 68.4775 29.5544 68.9486 29.1602C69.4196 28.7661 69.6599 28.247 69.6599 27.6221C69.6599 26.8627 69.2658 26.2762 68.4871 25.8821C68.3141 25.7956 68.0353 25.661 67.6412 25.4976L66.8913 25.1515C66.4972 24.9496 66.3049 24.6997 66.3049 24.4017C66.3049 23.9498 66.6894 23.6518 67.2662 23.6518C67.7757 23.6518 68.4006 23.8922 68.7948 24.344L69.5254 23.4019C68.9293 22.7482 68.1699 22.4213 67.247 22.4213C66.5452 22.4213 65.9781 22.6136 65.5455 23.0077C65.1129 23.3923 64.8918 23.8729 64.8918 24.4593C64.8918 25.1899 65.2667 25.7764 66.0069 26.209C66.1896 26.3147 66.4683 26.4493 66.8433 26.6031C67.2182 26.7473 67.4489 26.8434 67.545 26.8915C67.9872 27.1126 68.2083 27.3818 68.2083 27.699C68.2083 28.1701 67.7661 28.5257 67.122 28.5257C66.3434 28.5257 65.7281 28.1797 65.2763 27.4971L64.488 28.4008ZM55.0093 29.6409H53.452L51.8658 26.978H50.991V29.6409H49.6836V22.5367H52.3272C53.0963 22.5367 53.6827 22.7482 54.0961 23.1808C54.5094 23.6134 54.7113 24.1325 54.7113 24.7573C54.7113 25.6802 54.2114 26.507 53.2213 26.8242L55.0093 29.6409ZM52.3272 23.7576H50.991V25.7956H52.183C52.9809 25.7956 53.3655 25.3438 53.3655 24.767C53.3655 24.1998 52.9809 23.7576 52.3272 23.7576ZM56.0956 22.5367V29.6409H57.4127V22.5367H56.0956ZM63.767 29.6409H59.0469V22.5367H63.767V23.7672H60.3639V25.4399H63.5075V26.6608H60.3639V28.4104H63.767V29.6409ZM75.5529 29.6409H70.8328V22.5367H75.5529V23.7672H72.1498V25.4399H75.2933V26.6608H72.1498V28.4104H75.5529V29.6409ZM81.5612 22.5367V27.0934L77.6774 22.5367H76.8891V29.6409H78.1869V25.1227L82.0034 29.6409H82.859V22.5367H81.5612ZM84.4932 29.6409V22.5367H85.8102V29.6409H84.4932ZM91.7897 29.6409H93.1836L90.463 22.5367H89.4537L86.7043 29.6409H88.0982L88.6846 28.0259H91.2033L91.7897 29.6409ZM90.8283 26.8434L89.9535 24.4113L89.0691 26.8434H90.8283ZM93.6931 29.0449C93.6931 29.4678 94.0296 29.7947 94.4525 29.7947C94.8659 29.7947 95.1832 29.4678 95.1832 29.0449C95.1832 28.6315 94.8659 28.3143 94.4525 28.3143C94.0296 28.3143 93.6931 28.6315 93.6931 29.0449ZM98.5959 29.7562C97.7883 29.7562 97.125 29.4967 96.6059 28.9872C96.0964 28.4777 95.8369 27.824 95.8369 27.0261C95.8369 26.2282 96.0964 25.5745 96.6155 25.065C97.1346 24.5555 97.8076 24.2959 98.6343 24.2959C99.7014 24.2959 100.634 24.815 101.057 25.7283L100.038 26.2762C99.7302 25.7667 99.2303 25.4495 98.6535 25.4495C98.2017 25.4495 97.8268 25.6033 97.5288 25.9013C97.2308 26.1993 97.0866 26.5743 97.0866 27.0261C97.0866 27.4779 97.2308 27.8528 97.5192 28.1508C97.8076 28.4488 98.1729 28.6027 98.6151 28.6027C99.1919 28.6027 99.7591 28.2758 100.019 27.7855L101.038 28.3815C100.586 29.2179 99.6629 29.7562 98.5959 29.7562ZM102.374 25.0842C101.855 25.6129 101.595 26.257 101.595 27.0261C101.595 27.8048 101.855 28.4585 102.374 28.9872C102.903 29.5159 103.566 29.7755 104.383 29.7755C105.2 29.7755 105.863 29.5159 106.383 28.9872C106.911 28.4585 107.171 27.8048 107.171 27.0261C107.171 26.257 106.911 25.6129 106.383 25.0842C105.863 24.5555 105.2 24.2863 104.383 24.2863C103.566 24.2863 102.903 24.5555 102.374 25.0842ZM105.912 27.0261C105.912 26.5935 105.767 26.2186 105.469 25.9109C105.171 25.6033 104.816 25.4495 104.383 25.4495C103.95 25.4495 103.595 25.6033 103.297 25.9109C102.999 26.2186 102.855 26.5935 102.855 27.0261C102.855 27.4683 102.999 27.8432 103.297 28.1508C103.595 28.4585 103.95 28.6123 104.383 28.6123C104.816 28.6123 105.171 28.4585 105.469 28.1508C105.767 27.8432 105.912 27.4683 105.912 27.0261ZM115.919 24.8727C115.525 24.4786 115.025 24.2767 114.4 24.2767C113.602 24.2767 112.9 24.6228 112.525 25.2092C112.247 24.6035 111.651 24.2863 110.968 24.2767C110.286 24.2767 109.68 24.6228 109.382 25.1707V24.4209H108.151V29.6409H109.401V26.7761C109.401 25.959 109.911 25.4303 110.612 25.4303C111.276 25.4303 111.718 25.9206 111.718 26.7377V29.6409H112.968V26.7665C112.968 25.959 113.468 25.4303 114.169 25.4303C114.823 25.4303 115.256 25.8821 115.256 26.7281V29.6409H116.515V26.4973C116.515 25.8052 116.313 25.2669 115.919 24.8727Z" fill="white"/>
</svg>
