<svg width="75" height="70" viewBox="0 0 75 70" fill="none" xmlns="http://www.w3.org/2000/svg">
<path d="M6.00005 70L0.319939 59.9467L11.8664 60.0542L6.00005 70ZM74.0041 1.99999C73.5181 2.002 73.0327 2.00644 72.548 2.0134L72.5193 0.0136087C73.0109 0.00655007 73.5031 0.00204372 73.9959 8.52346e-06L74.0041 1.99999ZM69.6425 2.08619C68.6717 2.12117 67.7045 2.16701 66.7415 2.22432L66.6227 0.227851C67.6018 0.169578 68.5846 0.123012 69.5705 0.0874867L69.6425 2.08619ZM63.8471 2.43292C62.88 2.5151 61.9179 2.60972 60.9615 2.71745L60.7377 0.730017C61.7128 0.620177 62.6931 0.523771 63.6777 0.440098L63.8471 2.43292ZM58.0858 3.08401C57.1253 3.22112 56.1714 3.37246 55.2247 3.53869L54.8788 1.56883C55.8473 1.39878 56.8223 1.24411 57.8032 1.10409L58.0858 3.08401ZM52.3832 4.08782C51.4357 4.28821 50.4965 4.50471 49.5662 4.73804L49.0796 2.79812C50.0349 2.55854 50.9984 2.33646 51.9694 2.1311L52.3832 4.08782ZM46.7795 5.49605C45.8527 5.76852 44.936 6.0591 44.0299 6.36854L43.3835 4.47588C44.3176 4.15685 45.2619 3.85758 46.2154 3.57726L46.7795 5.49605ZM41.3251 7.36188C40.4293 7.71483 39.5453 8.08793 38.6739 8.48193L37.8499 6.65952C38.7522 6.25162 39.6665 5.86577 40.592 5.50111L41.3251 7.36188ZM36.0856 9.73368C35.2336 10.1738 34.3951 10.6359 33.5707 11.1209L32.5566 9.39707C33.4133 8.89311 34.2839 8.4133 35.1677 7.95675L36.0856 9.73368ZM31.1399 12.6458C30.3461 13.1763 29.5672 13.7303 28.8038 14.3087L27.5959 12.7147C28.3913 12.112 29.2025 11.535 30.0286 10.983L31.1399 12.6458ZM26.5727 16.108C25.8512 16.727 25.1454 17.3706 24.4561 18.0396L23.0632 16.6044C23.7821 15.9066 24.5182 15.2355 25.2705 14.59L26.5727 16.108ZM22.4619 20.0977C21.8235 20.7982 21.2013 21.5236 20.596 22.2747L19.0387 21.0197C19.6695 20.2371 20.318 19.481 20.9836 18.7506L22.4619 20.0977ZM18.8623 24.562C18.3128 25.3333 17.7794 26.1291 17.2627 26.9501L15.57 25.8849C16.1069 25.0317 16.6616 24.2041 17.2335 23.4014L18.8623 24.562ZM15.8024 29.4195C15.3445 30.2443 14.9022 31.0923 14.4759 31.9643L12.6791 31.0859C13.1204 30.1831 13.5788 29.3043 14.0538 28.4487L15.8024 29.4195ZM13.2783 34.577C12.9053 35.4461 12.5472 36.3372 12.2044 37.2507L10.3319 36.548C10.6854 35.606 11.055 34.6862 11.4404 33.7882L13.2783 34.577ZM11.2482 39.98C10.9542 40.8809 10.6742 41.802 10.4086 42.7439L8.48366 42.2011C8.75648 41.2337 9.04433 40.2866 9.34687 39.3596L11.2482 39.98ZM9.6804 45.528C9.45734 46.4506 9.24733 47.3918 9.05068 48.3519L7.09135 47.9507C7.29262 46.968 7.50773 46.0039 7.73641 45.058L9.6804 45.528ZM8.51357 51.2168C8.35476 52.1474 8.20786 53.0947 8.07316 54.0591L6.09238 53.7824C6.22982 52.7985 6.3798 51.8312 6.54208 50.8804L8.51357 51.2168ZM7.71341 56.9357C7.60782 57.8883 7.51359 58.8567 7.43093 59.8412L5.43795 59.6738C5.52205 58.6721 5.618 57.686 5.72558 56.7154L7.71341 56.9357ZM7.22551 62.7146C7.1687 63.672 7.12241 64.6438 7.0868 65.6302L5.0881 65.5581C5.12425 64.5565 5.17128 63.5692 5.22902 62.5961L7.22551 62.7146Z" fill="#F698AD"/>
</svg>
